# xmcd
#
# Track frame offsets:
#	150
#	23509
#	40317
#	67947
#	80946
#	110798
#	126019
#	143718
#	163219
#	195253
#	213671
#	232459
#	247793
#	262085
#
# Disc length: 3687 seconds
#
# Revision: 0
# Processed by: cddbd v1.5.2PL0 Copyright (c) Steve Scherf et al.
# Submitted via: dBpowerAMP V4.0
#
DISCID=cd0e650e
DTITLE=marcos witt - Varios 
DYEAR=1900
DGENRE=
TTITLE0=Hoy 
TTITLE1=A Cristo solo a Cristo 
TTITLE2=Te Amo
TTITLE3=Porque para siempre 
TTITLE4=Tu amor por mi 
TTITLE5=Yo quiero ser como tu 
TTITLE6=De gloria en gloria
TTITLE7=Ven y llena esta casa 
TTITLE8=digno y santo
TTITLE9=el himno de victoria
TTITLE10=shalom
TTITLE11=pilar y monica
TTITLE12=pilar y monica
TTITLE13=pilar y monica
EXTD=varios
EXTT0=
EXTT1=
EXTT2=
EXTT3=
EXTT4=
EXTT5=
EXTT6=
EXTT7=
EXTT8=
EXTT9=
EXTT10=
EXTT11=
EXTT12=
EXTT13=
PLAYORDER=
